<svg width="282" height="56" viewBox="0 0 282 56" fill="none" xmlns="http://www.w3.org/2000/svg" role="img" aria-labelledby="title">
  <title id="title">FreightMynd horizon logo for dark backgrounds</title>
  <g transform="translate(2 4)">
    <path d="M9 26.5C11.9 13.4 23.6 3.6 37.5 3.6c12.8 0 23.7 8.2 27.6 19.6" stroke="#FFFFFF" stroke-width="6" stroke-linecap="round"/>
    <path d="M11.5 31.5 65.5 27 21.8 45.6 4.5 34.7l7-3.2Z" fill="#de7810"/>
    <path d="M24.2 45.9C29 49 34.4 50.5 40.2 50.5c9 0 17-4 22.4-10.3" stroke="#D7B78E" stroke-width="6" stroke-linecap="round"/>
    <path d="M24.2 45.9 66.2 27 39.8 51.5" fill="#D7B78E"/>
    <path d="M25.8 35.1 35.8 34.2M42 33.5l8.5-.8M56.4 31.9l6.4-.6" stroke="#FFFFFF" stroke-width="2.2" stroke-linecap="round"/>
  </g>
  <text x="80" y="36" fill="#FFFFFF" font-family="Geist, sans-serif" font-size="28" font-weight="800" letter-spacing="0">Freight</text>
  <text x="191" y="36" fill="#de7810" font-family="Geist, sans-serif" font-size="28" font-weight="800" letter-spacing="0">Mynd</text>
</svg>
