<svg width="64" height="64" viewBox="0 0 64 64" fill="none" xmlns="http://www.w3.org/2000/svg" role="img" aria-labelledby="title">
  <title id="title">FreightMynd horizon favicon</title>
  <rect x="4" y="4" width="56" height="56" rx="16" fill="#F8F5EE"/>
  <path d="M13 31C15.7 18.3 27 9 40 9c9.3 0 17.4 4.5 22.3 11.4" stroke="#24170E" stroke-width="6" stroke-linecap="round"/>
  <path d="M12.2 36.2 58 32.2 21.1 48 6.5 38.7l5.7-2.5Z" fill="#de7810"/>
  <path d="M23.2 48.2c4.3 2.8 9.2 4.2 14.5 4.2 7.9 0 15-3.3 20-8.6" stroke="#6E6259" stroke-width="6" stroke-linecap="round"/>
  <path d="M23.2 48.2 58.6 32.2 36.2 53.2" fill="#6E6259"/>
  <path d="M24 39.2 32.4 38.5M37.6 37.9l7.4-.7M50 36.8l5.2-.5" stroke="#FFFFFF" stroke-width="2" stroke-linecap="round"/>
</svg>
